<?xml version="1.0" encoding="utf-8"?>
<!-- Generator: Adobe Illustrator 21.1.0, SVG Export Plug-In . SVG Version: 6.00 Build 0)  -->
<svg version="1.1" xmlns="http://www.w3.org/2000/svg" xmlns:xlink="http://www.w3.org/1999/xlink" x="0px" y="0px"
	 viewBox="0 0 256.7 244.7" style="enable-background:new 0 0 256.7 244.7;" xml:space="preserve">
<style type="text/css">
	.st0{display:none;}
	.st1{display:inline;}
</style>
<g id="paw_straight" class="st0">
	<g class="st1">
		<path d="M165.4,134.9c-1,1.5-4.5,12.1-20.6,9.9c-9.5-1.3-15-9.4-16.4-9.4c-1.7,0-7.7,8-16,9c-15.4,1.9-19.8-7.9-21-9.5
			c-2.6-3.7,12.5-31.5,37-31.5C151.3,103.4,168.7,129.5,165.4,134.9z"/>
	</g>
	<ellipse class="st1" cx="88.4" cy="98.4" rx="12" ry="18"/>
	<ellipse class="st1" cx="112.4" cy="78.4" rx="12" ry="21"/>
	<ellipse class="st1" cx="168.4" cy="98.4" rx="12" ry="18"/>
	<ellipse class="st1" cx="144.4" cy="78.4" rx="12" ry="21"/>
</g>
<g id="paw_angled" class="st0">
	<g class="st1">
		<g>
			<path d="M157.7,176.5c-1.8,1.4-10.4,12.7-28.8,3.4c-10.9-5.5-14.1-17.4-15.8-18.1c-2.1-0.7-12.5,6.4-22.9,4.2
				C70.9,162,69.7,148.4,68.9,146c-1.7-5.5,28-32.6,57.4-22.5C153.8,132.9,163.9,171.5,157.7,176.5z"/>
		</g>
		<ellipse transform="matrix(0.3251 -0.9457 0.9457 0.3251 -41.2162 144.1423)" cx="80.4" cy="100.9" rx="22.8" ry="15.2"/>
		<ellipse transform="matrix(0.3251 -0.9457 0.9457 0.3251 -2.8925 169.6561)" cx="117.4" cy="86.9" rx="26.6" ry="15.2"/>
		<ellipse transform="matrix(0.3251 -0.9457 0.9457 0.3251 -7.6512 257.1591)" cx="176.3" cy="133.9" rx="22.8" ry="15.2"/>
		<ellipse transform="matrix(0.3251 -0.9457 0.9457 0.3251 10.5335 214.8629)" cx="155.8" cy="100.1" rx="26.6" ry="15.2"/>
	</g>
</g>
<g id="paw_angled_copy">
	<g>
		<g>
			<path d="M187,230.6c-3.5,2.9-20.7,25.4-57.5,6.8c-21.8-11-28.2-34.9-31.6-36.1c-4.2-1.5-24.9,12.8-45.8,8.4
				c-38.7-8.1-41.1-35.3-42.5-40.1c-3.3-11,55.9-65.3,114.7-45.1C179.2,143.4,199.4,220.6,187,230.6z"/>
		</g>
		<ellipse transform="matrix(0.3251 -0.9457 0.9457 0.3251 -53.3545 84.3195)" cx="32.4" cy="79.5" rx="45.7" ry="30.4"/>
		<ellipse transform="matrix(0.3251 -0.9457 0.9457 0.3251 23.2929 135.3472)" cx="106.5" cy="51.4" rx="53.3" ry="30.4"/>
		<ellipse transform="matrix(0.3251 -0.9457 0.9457 0.3251 13.7754 310.3533)" cx="224.3" cy="145.5" rx="45.7" ry="30.4"/>
		<ellipse transform="matrix(0.3251 -0.9457 0.9457 0.3251 50.1448 225.7607)" cx="183.2" cy="77.7" rx="53.3" ry="30.4"/>
	</g>
</g>
<g id="guides" class="st0">
</g>
</svg>
